{
  "asset": {
    "version": "2.0",
    "generator": "THREE.GLTFExporter"
  },
  "scenes": [
    {
      "name": "Scene",
      "nodes": [
        13
      ]
    }
  ],
  "scene": 0,
  "nodes": [
    {
      "matrix": [
        1,
        0,
        0,
        0,
        0,
        1,
        0,
        0,
        0,
        0,
        1,
        0,
        0,
        -0.4630002975463867,
        -7.586580753326416,
        1
      ],
      "name": "NOSE_TIP",
      "extras": {
        "name": "NOSE_TIP",
        "associations": {
          "nodes": 0
        }
      }
    },
    {
      "matrix": [
        0.8480480998424316,
        2.7590174927813507e-8,
        0.5299192672415689,
        0,
        -0.15934981292405234,
        0.9537167680765253,
        0.2550129578242876,
        0,
        -0.505392974120168,
        -0.3007058441225624,
        0.8087978417992844,
        0,
        3.7090003490448,
        6.9639997482299805,
        -3.9810001850128174,
        1
      ],
      "name": "FOREHEAD_RIGHT",
      "extras": {
        "name": "FOREHEAD_RIGHT",
        "associations": {
          "nodes": 1
        }
      }
    },
    {
      "matrix": [
        0.848048037957133,
        1.913175297479299e-8,
        -0.5299193739232971,
        0,
        0.1593498173539175,
        0.953716950445372,
        0.2550129790532874,
        0,
        0.5053930939537514,
        -0.3007058118646132,
        0.8087977852146814,
        0,
        -3.7090001106262207,
        6.964009761810303,
        -3.980999708175659,
        1
      ],
      "name": "FOREHEAD_LEFT",
      "extras": {
        "name": "FOREHEAD_LEFT",
        "associations": {
          "nodes": 2
        }
      }
    },
    {
      "matrix": [
        1,
        0,
        0,
        0,
        0,
        -1.3435885655173873e-7,
        -1.0000001343588565,
        0,
        0,
        1.0000001343588565,
        -1.3435885655173873e-7,
        0,
        0,
        0,
        0,
        1
      ],
      "name": "root",
      "extras": {
        "name": "root",
        "associations": {
          "nodes": 3
        }
      },
      "children": [
        0,
        1,
        2
      ]
    },
    {
      "matrix": [
        -99.99999315429298,
        -0.000004371137549008514,
        -0.00000437113696170749,
        0,
        0.0000043711378482437545,
        -0.000016858739071689594,
        -99.99999657714454,
        0,
        0.00000437113696170749,
        -99.9999965771457,
        0.000016858739260427695,
        0,
        0,
        -4.822478771209717,
        -2.4722161293029785,
        1
      ],
      "name": "lenti",
      "extras": {
        "name": "lenti",
        "associations": {
          "meshes": 0,
          "primitives": 0,
          "nodes": 4
        },
        "variantData": {}
      },
      "mesh": 0
    },
    {
      "matrix": [
        -99.99999315429298,
        -0.000004371137549008514,
        -0.00000437113696170749,
        0,
        0.0000043711378482437545,
        -0.000016858739071689594,
        -99.99999657714454,
        0,
        0.00000437113696170749,
        -99.9999965771457,
        0.000016858739260427695,
        0,
        0,
        -5.659843444824219,
        -2.2999346256256104,
        1
      ],
      "name": "barra_argentata",
      "extras": {
        "name": "barra argentata",
        "associations": {
          "meshes": 1,
          "primitives": 0,
          "nodes": 5
        },
        "variantData": {}
      },
      "mesh": 1
    },
    {
      "matrix": [
        -99.99999315429298,
        -0.000004371137549008514,
        -0.00000437113696170749,
        0,
        0.0000043711378482437545,
        -0.000016858739071689594,
        -99.99999657714454,
        0,
        0.00000437113696170749,
        -99.9999965771457,
        0.000016858739260427695,
        0,
        0,
        -5.772191524505615,
        -2.299905300140381,
        1
      ],
      "name": "Text001",
      "extras": {
        "name": "Text.001",
        "associations": {
          "meshes": 5,
          "primitives": 0,
          "nodes": 9
        },
        "variantData": {}
      },
      "mesh": 2
    },
    {
      "matrix": [
        -99.99999315429298,
        -0.000004371137549008514,
        -0.00000437113696170749,
        0,
        0.0000043711378482437545,
        -0.000016858739071689594,
        -99.99999657714454,
        0,
        0.00000437113696170749,
        -99.9999965771457,
        0.000016858739260427695,
        0,
        -0.6216270923614502,
        -5.013204097747803,
        -2.2997987270355225,
        1
      ],
      "name": "STECCHE_TERMINALI",
      "extras": {
        "name": "STECCHE TERMINALI",
        "associations": {
          "meshes": 2,
          "primitives": 0,
          "nodes": 6
        },
        "variantData": {}
      },
      "mesh": 3
    },
    {
      "matrix": [
        -99.99999315429298,
        -0.000004371137549008514,
        -0.00000437113696170749,
        0,
        0.0000043711378482437545,
        -0.000016858739071689594,
        -99.99999657714454,
        0,
        0.00000437113696170749,
        -99.9999965771457,
        0.000016858739260427695,
        0,
        0.5396100878715515,
        -4.4953460693359375,
        -2.2999348640441895,
        1
      ],
      "name": "Text",
      "extras": {
        "name": "Text",
        "associations": {
          "meshes": 3,
          "primitives": 0,
          "nodes": 7
        },
        "variantData": {}
      },
      "mesh": 4
    },
    {
      "matrix": [
        -99.99999315429298,
        -0.000004371137549008514,
        -0.00000437113696170749,
        0,
        0.0000043711378482437545,
        -0.000016858739071689594,
        -99.99999657714454,
        0,
        0.00000437113696170749,
        -99.9999965771457,
        0.000016858739260427695,
        0,
        -0.000009554080861562397,
        -4.169445991516113,
        -2.9386844635009766,
        1
      ],
      "name": "MONTATURA",
      "extras": {
        "name": "MONTATURA",
        "associations": {
          "meshes": 4,
          "primitives": 0,
          "nodes": 8
        },
        "variantData": {}
      },
      "mesh": 5
    },
    {
      "matrix": [
        -0.009999999091911894,
        4.371138456165163e-10,
        4.3711378688640163e-10,
        0,
        -4.3711387554004647e-10,
        -1.6858738694867412e-9,
        -0.009999999434197044,
        0,
        -4.3711378688640163e-10,
        -0.009999999434197158,
        1.6858738916912198e-9,
        0,
        0,
        0,
        0,
        1
      ],
      "name": "asset001",
      "extras": {
        "name": "asset.001",
        "associations": {
          "nodes": 10
        }
      },
      "children": [
        3,
        4,
        5,
        6,
        7,
        8,
        9
      ]
    },
    {
      "name": "Scene",
      "extras": {
        "name": "Scene",
        "associations": {
          "nodes": 11
        }
      },
      "children": [
        10
      ]
    },
    {
      "name": "AuxScene_1",
      "extras": {
        "name": "AuxScene"
      },
      "children": [
        11
      ]
    },
    {
      "matrix": [
        1,
        0,
        0,
        0,
        0,
        1,
        0,
        0,
        0,
        0,
        1,
        0,
        0,
        -0.02487152364878598,
        -0.03708699606818033,
        1
      ],
      "name": "poc_nero_verde_profondo_spezzate.glb",
      "children": [
        12
      ]
    }
  ],
  "bufferViews": [
    {
      "buffer": 0,
      "byteOffset": 0,
      "byteLength": 15768,
      "target": 34962,
      "byteStride": 12
    },
    {
      "buffer": 0,
      "byteOffset": 15768,
      "byteLength": 15768,
      "target": 34962,
      "byteStride": 12
    },
    {
      "buffer": 0,
      "byteOffset": 31536,
      "byteLength": 10512,
      "target": 34962,
      "byteStride": 8
    },
    {
      "buffer": 0,
      "byteOffset": 42048,
      "byteLength": 14304,
      "target": 34963
    },
    {
      "buffer": 0,
      "byteOffset": 56352,
      "byteLength": 3552,
      "target": 34962,
      "byteStride": 12
    },
    {
      "buffer": 0,
      "byteOffset": 59904,
      "byteLength": 3552,
      "target": 34962,
      "byteStride": 12
    },
    {
      "buffer": 0,
      "byteOffset": 63456,
      "byteLength": 2368,
      "target": 34962,
      "byteStride": 8
    },
    {
      "buffer": 0,
      "byteOffset": 65824,
      "byteLength": 888,
      "target": 34963
    },
    {
      "buffer": 0,
      "byteOffset": 66712,
      "byteLength": 15264,
      "target": 34962,
      "byteStride": 12
    },
    {
      "buffer": 0,
      "byteOffset": 81976,
      "byteLength": 15264,
      "target": 34962,
      "byteStride": 12
    },
    {
      "buffer": 0,
      "byteOffset": 97240,
      "byteLength": 10176,
      "target": 34962,
      "byteStride": 8
    },
    {
      "buffer": 0,
      "byteOffset": 107416,
      "byteLength": 6480,
      "target": 34963
    },
    {
      "buffer": 0,
      "byteOffset": 113896,
      "byteLength": 6456,
      "target": 34962,
      "byteStride": 12
    },
    {
      "buffer": 0,
      "byteOffset": 120352,
      "byteLength": 6456,
      "target": 34962,
      "byteStride": 12
    },
    {
      "buffer": 0,
      "byteOffset": 126808,
      "byteLength": 4304,
      "target": 34962,
      "byteStride": 8
    },
    {
      "buffer": 0,
      "byteOffset": 131112,
      "byteLength": 4512,
      "target": 34963
    },
    {
      "buffer": 0,
      "byteOffset": 135624,
      "byteLength": 5232,
      "target": 34962,
      "byteStride": 12
    },
    {
      "buffer": 0,
      "byteOffset": 140856,
      "byteLength": 5232,
      "target": 34962,
      "byteStride": 12
    },
    {
      "buffer": 0,
      "byteOffset": 146088,
      "byteLength": 3488,
      "target": 34962,
      "byteStride": 8
    },
    {
      "buffer": 0,
      "byteOffset": 149576,
      "byteLength": 1308,
      "target": 34963
    },
    {
      "buffer": 0,
      "byteOffset": 150884,
      "byteLength": 56604,
      "target": 34962,
      "byteStride": 12
    },
    {
      "buffer": 0,
      "byteOffset": 207488,
      "byteLength": 56604,
      "target": 34962,
      "byteStride": 12
    },
    {
      "buffer": 0,
      "byteOffset": 264092,
      "byteLength": 37736,
      "target": 34962,
      "byteStride": 8
    },
    {
      "buffer": 0,
      "byteOffset": 301828,
      "byteLength": 38184,
      "target": 34963
    }
  ],
  "buffers": [
    {
      "byteLength": 340012,
      "uri": "data:application/octet-stream;base64,"
    }
  ],
  "accessors": [
    {
      "bufferView": 0,
      "componentType": 5126,
      "count": 1314,
      "max": [
        0.07313934713602066,
        0.030429597944021225,
        0.012515374459326267
      ],
      "min": [
        -0.07313934713602066,
        -0.028841964900493622,
        -0.01660102792084217
      ],
      "type": "VEC3"
    },
    {
      "bufferView": 1,
      "componentType": 5126,
      "count": 1314,
      "max": [
        0.9988166689872742,
        0.8281552791595459,
        0.9930527806282043
      ],
      "min": [
        -0.9988177418708801,
        -0.8149919509887695,
        -0.9997660517692566
      ],
      "type": "VEC3"
    },
    {
      "bufferView": 2,
      "componentType": 5126,
      "count": 1314,
      "max": [
        0.7600243091583252,
        0.9998778104782104
      ],
      "min": [
        0.00012221562792547047,
        0.00012224912643432617
      ],
      "type": "VEC2"
    },
    {
      "bufferView": 3,
      "componentType": 5123,
      "count": 7152,
      "max": [
        1313
      ],
      "min": [
        0
      ],
      "type": "SCALAR"
    },
    {
      "bufferView": 4,
      "componentType": 5126,
      "count": 296,
      "max": [
        0.037810273468494415,
        0.03187190368771553,
        0.003056097775697708
      ],
      "min": [
        -0.037810273468494415,
        0.026082292199134827,
        -0.0036731897853314877
      ],
      "type": "VEC3"
    },
    {
      "bufferView": 5,
      "componentType": 5126,
      "count": 296,
      "max": [
        0.3291844129562378,
        0.3668738603591919,
        0.9942845702171326
      ],
      "min": [
        -0.32918474078178406,
        -0.3610358238220215,
        -0.9943007230758667
      ],
      "type": "VEC3"
    },
    {
      "bufferView": 6,
      "componentType": 5126,
      "count": 296,
      "max": [
        0.16568617522716522,
        0.9988672733306885
      ],
      "min": [
        0.0011327428510412574,
        0.0011327266693115234
      ],
      "type": "VEC2"
    },
    {
      "bufferView": 7,
      "componentType": 5123,
      "count": 444,
      "max": [
        295
      ],
      "min": [
        0
      ],
      "type": "SCALAR"
    },
    {
      "bufferView": 8,
      "componentType": 5126,
      "count": 1272,
      "max": [
        0.014681677334010601,
        0.030627615749835968,
        0.0017210040241479874
      ],
      "min": [
        -0.01244726125150919,
        0.02706001326441765,
        0.0002953348448500037
      ],
      "type": "VEC3"
    },
    {
      "bufferView": 9,
      "componentType": 5126,
      "count": 1272,
      "max": [
        0.999786376953125,
        0.9988097548484802,
        0.983214795589447
      ],
      "min": [
        -0.999786376953125,
        -0.9988097548484802,
        -0.19461654126644135
      ],
      "type": "VEC3"
    },
    {
      "bufferView": 10,
      "componentType": 5126,
      "count": 1272,
      "max": [
        0.9678117036819458,
        0.9900909066200256
      ],
      "min": [
        0.009909119457006454,
        0.00990903377532959
      ],
      "type": "VEC2"
    },
    {
      "bufferView": 11,
      "componentType": 5123,
      "count": 3240,
      "max": [
        1271
      ],
      "min": [
        0
      ],
      "type": "SCALAR"
    },
    {
      "bufferView": 12,
      "componentType": 5126,
      "count": 538,
      "max": [
        0.0759018212556839,
        0.02030874229967594,
        -0.06271890550851822
      ],
      "min": [
        -0.08833438158035278,
        0.003097532084211707,
        -0.09916707873344421
      ],
      "type": "VEC3"
    },
    {
      "bufferView": 13,
      "componentType": 5126,
      "count": 538,
      "max": [
        0.9923332333564758,
        0.999573290348053,
        0.9876910448074341
      ],
      "min": [
        -0.9923409819602966,
        -0.9994373321533203,
        -0.9876988530158997
      ],
      "type": "VEC3"
    },
    {
      "bufferView": 14,
      "componentType": 5126,
      "count": 538,
      "max": [
        1,
        1
      ],
      "min": [
        0,
        0.04911816120147705
      ],
      "type": "VEC2"
    },
    {
      "bufferView": 15,
      "componentType": 5123,
      "count": 2256,
      "max": [
        537
      ],
      "min": [
        0
      ],
      "type": "SCALAR"
    },
    {
      "bufferView": 16,
      "componentType": 5126,
      "count": 436,
      "max": [
        0.08097781240940094,
        0.016426805406808853,
        -0.03505199775099754
      ],
      "min": [
        0.07827281206846237,
        0.007993493229150772,
        -0.05051514506340027
      ],
      "type": "VEC3"
    },
    {
      "bufferView": 17,
      "componentType": 5126,
      "count": 436,
      "max": [
        0.9886471033096313,
        0.999969482421875,
        0.9872737526893616
      ],
      "min": [
        -0.158848837018013,
        -0.9998779296875,
        -0.9871211647987366
      ],
      "type": "VEC3"
    },
    {
      "bufferView": 18,
      "componentType": 5126,
      "count": 436,
      "max": [
        0.9681824445724487,
        0.9900908470153809
      ],
      "min": [
        0.009909119457006454,
        0.041900694370269775
      ],
      "type": "VEC2"
    },
    {
      "bufferView": 19,
      "componentType": 5123,
      "count": 654,
      "max": [
        435
      ],
      "min": [
        0
      ],
      "type": "SCALAR"
    },
    {
      "bufferView": 20,
      "componentType": 5126,
      "count": 4717,
      "max": [
        0.07664523273706436,
        0.026266412809491158,
        0.017736190930008888
      ],
      "min": [
        -0.07664544135332108,
        -0.03387773782014847,
        -0.05468156933784485
      ],
      "type": "VEC3"
    },
    {
      "bufferView": 21,
      "componentType": 5126,
      "count": 4717,
      "max": [
        1,
        1,
        0.9988765716552734
      ],
      "min": [
        -1,
        -1,
        -1
      ],
      "type": "VEC3"
    },
    {
      "bufferView": 22,
      "componentType": 5126,
      "count": 4717,
      "max": [
        0.9885691404342651,
        0.9885691404342651
      ],
      "min": [
        0.01143085677176714,
        0.037087321281433105
      ],
      "type": "VEC2"
    },
    {
      "bufferView": 23,
      "componentType": 5123,
      "count": 19092,
      "max": [
        4716
      ],
      "min": [
        0
      ],
      "type": "SCALAR"
    }
  ],
  "materials": [
    {
      "pbrMetallicRoughness": {
        "baseColorFactor": [
          0.3803921568627451,
          0.5490196078431373,
          0.5019607843137255,
          0.8010596632957458
        ],
        "metallicFactor": 1,
        "roughnessFactor": 0
      },
      "alphaMode": "BLEND",
      "doubleSided": true,
      "name": "vetro",
      "extras": {
        "associations": {
          "materials": 0
        }
      }
    },
    {
      "pbrMetallicRoughness": {
        "baseColorFactor": [
          0.20668436586856842,
          0.20668436586856842,
          0.20668436586856842,
          1
        ],
        "metallicFactor": 1,
        "roughnessFactor": 1,
        "metallicRoughnessTexture": {
          "index": 0
        }
      },
      "doubleSided": true,
      "name": "barralogo",
      "extras": {
        "associations": {
          "materials": 1
        }
      }
    },
    {
      "pbrMetallicRoughness": {
        "metallicFactor": 1,
        "roughnessFactor": 0.30000001192092896,
        "metallicRoughnessTexture": {
          "index": 1
        }
      },
      "doubleSided": true,
      "name": "scritta spaarkly",
      "extras": {
        "associations": {
          "materials": 5
        }
      }
    },
    {
      "pbrMetallicRoughness": {
        "metallicFactor": 1,
        "roughnessFactor": 1,
        "metallicRoughnessTexture": {
          "index": 2
        },
        "baseColorTexture": {
          "index": 3
        }
      },
      "doubleSided": true,
      "name": "aste",
      "extras": {
        "associations": {
          "materials": 2
        }
      }
    },
    {
      "pbrMetallicRoughness": {
        "baseColorFactor": [
          0.0973459780216217,
          0.0973459780216217,
          0.0973459780216217,
          1
        ],
        "metallicFactor": 1,
        "roughnessFactor": 0.5,
        "metallicRoughnessTexture": {
          "index": 4
        }
      },
      "doubleSided": true,
      "name": "scritta ar",
      "extras": {
        "associations": {
          "materials": 3
        }
      }
    },
    {
      "pbrMetallicRoughness": {
        "metallicFactor": 1,
        "roughnessFactor": 1,
        "metallicRoughnessTexture": {
          "index": 5
        },
        "baseColorTexture": {
          "index": 6
        }
      },
      "doubleSided": true,
      "name": "montatura",
      "extras": {
        "associations": {
          "materials": 4
        }
      }
    }
  ],
  "meshes": [
    {
      "primitives": [
        {
          "mode": 4,
          "attributes": {
            "POSITION": 0,
            "NORMAL": 1,
            "TEXCOORD_0": 2
          },
          "indices": 3,
          "material": 0
        }
      ]
    },
    {
      "primitives": [
        {
          "mode": 4,
          "attributes": {
            "POSITION": 4,
            "NORMAL": 5,
            "TEXCOORD_0": 6
          },
          "indices": 7,
          "material": 1
        }
      ]
    },
    {
      "primitives": [
        {
          "mode": 4,
          "attributes": {
            "POSITION": 8,
            "NORMAL": 9,
            "TEXCOORD_0": 10
          },
          "indices": 11,
          "material": 2
        }
      ]
    },
    {
      "primitives": [
        {
          "mode": 4,
          "attributes": {
            "POSITION": 12,
            "NORMAL": 13,
            "TEXCOORD_0": 14
          },
          "indices": 15,
          "material": 3
        }
      ]
    },
    {
      "primitives": [
        {
          "mode": 4,
          "attributes": {
            "POSITION": 16,
            "NORMAL": 17,
            "TEXCOORD_0": 18
          },
          "indices": 19,
          "material": 4
        }
      ]
    },
    {
      "primitives": [
        {
          "mode": 4,
          "attributes": {
            "POSITION": 20,
            "NORMAL": 21,
            "TEXCOORD_0": 22
          },
          "indices": 23,
          "material": 5
        }
      ]
    }
  ],
  "textures": [
    {
      "sampler": 0,
      "source": 0
    },
    {
      "sampler": 1,
      "source": 1
    },
    {
      "sampler": 2,
      "source": 2
    },
    {
      "sampler": 3,
      "source": 3
    },
    {
      "sampler": 4,
      "source": 4
    },
    {
      "sampler": 5,
      "source": 5
    },
    {
      "sampler": 6,
      "source": 6
    }
  ],
  "samplers": [
    {
      "magFilter": 9729,
      "minFilter": 9987,
      "wrapS": 10497,
      "wrapT": 10497
    },
    {
      "magFilter": 9729,
      "minFilter": 9987,
      "wrapS": 10497,
      "wrapT": 10497
    },
    {
      "magFilter": 9729,
      "minFilter": 9987,
      "wrapS": 10497,
      "wrapT": 10497
    },
    {
      "magFilter": 9729,
      "minFilter": 9987,
      "wrapS": 10497,
      "wrapT": 10497
    },
    {
      "magFilter": 9729,
      "minFilter": 9987,
      "wrapS": 10497,
      "wrapT": 10497
    },
    {
      "magFilter": 9729,
      "minFilter": 9987,
      "wrapS": 10497,
      "wrapT": 10497
    },
    {
      "magFilter": 9729,
      "minFilter": 9987,
      "wrapS": 10497,
      "wrapT": 10497
    }
  ],
  "images": [
    {
      "mimeType": "image/png",
      "uri": "data:image/png;base64,"
    },
    {
      "mimeType": "image/png",
      "uri": "data:image/png;base64,"
    },
    {
      "mimeType": "image/png",
      "uri": "data:image/png;base64,"
    },
    {
      "mimeType": "image/png",
      "uri": "data:image/png;base64,"
    },
    {
      "mimeType": "image/png",
      "uri": "data:image/png;base64,"
    },
    {
      "mimeType": "image/png",
      "uri": "data:image/png;base64,"
    },
    {
      "mimeType": "image/png",
      "uri": "data:image/png;base64,"
    }
  ]
}