{
  "asset": {
    "version": "2.0",
    "generator": "THREE.GLTFExporter"
  },
  "scenes": [
    {
      "name": "Scene",
      "nodes": [
        4
      ]
    }
  ],
  "scene": 0,
  "nodes": [
    {
      "name": "lenti",
      "extras": {
        "name": "lenti"
      },
      "mesh": 0
    },
    {
      "name": "montatura",
      "extras": {
        "name": "montatura"
      },
      "mesh": 1
    },
    {
      "name": "naselli",
      "extras": {
        "name": "naselli"
      },
      "mesh": 2
    },
    {
      "name": "Scene_1",
      "extras": {
        "name": "Scene"
      },
      "children": [
        0,
        1,
        2
      ]
    },
    {
      "name": "wing.glb",
      "children": [
        3
      ]
    }
  ],
  "bufferViews": [
    {
      "buffer": 0,
      "byteOffset": 0,
      "byteLength": 11544,
      "target": 34962,
      "byteStride": 12
    },
    {
      "buffer": 0,
      "byteOffset": 11544,
      "byteLength": 7696,
      "target": 34962,
      "byteStride": 8
    },
    {
      "buffer": 0,
      "byteOffset": 19240,
      "byteLength": 11544,
      "target": 34962,
      "byteStride": 12
    },
    {
      "buffer": 0,
      "byteOffset": 30784,
      "byteLength": 11520,
      "target": 34963
    },
    {
      "buffer": 0,
      "byteOffset": 42304,
      "byteLength": 104028,
      "target": 34962,
      "byteStride": 12
    },
    {
      "buffer": 0,
      "byteOffset": 146332,
      "byteLength": 69352,
      "target": 34962,
      "byteStride": 8
    },
    {
      "buffer": 0,
      "byteOffset": 215684,
      "byteLength": 104028,
      "target": 34962,
      "byteStride": 12
    },
    {
      "buffer": 0,
      "byteOffset": 319712,
      "byteLength": 70668,
      "target": 34963
    },
    {
      "buffer": 0,
      "byteOffset": 390380,
      "byteLength": 9336,
      "target": 34962,
      "byteStride": 12
    },
    {
      "buffer": 0,
      "byteOffset": 399716,
      "byteLength": 6224,
      "target": 34962,
      "byteStride": 8
    },
    {
      "buffer": 0,
      "byteOffset": 405940,
      "byteLength": 9336,
      "target": 34962,
      "byteStride": 12
    },
    {
      "buffer": 0,
      "byteOffset": 415276,
      "byteLength": 8040,
      "target": 34963
    }
  ],
  "buffers": [
    {
      "byteLength": 423316,
      "uri": "data:application/octet-stream;base64,"
    }
  ],
  "accessors": [
    {
      "bufferView": 0,
      "componentType": 5126,
      "count": 962,
      "max": [
        0.06589913368225098,
        0.019282182678580284,
        0.003233256284147501
      ],
      "min": [
        -0.06589913368225098,
        -0.03190892934799194,
        -0.018499132245779037
      ],
      "type": "VEC3"
    },
    {
      "bufferView": 1,
      "componentType": 5126,
      "count": 962,
      "max": [
        0,
        1
      ],
      "min": [
        0,
        1
      ],
      "type": "VEC2"
    },
    {
      "bufferView": 2,
      "componentType": 5126,
      "count": 962,
      "max": [
        0.9572088718414307,
        0.9902545809745789,
        0.9997261762619019
      ],
      "min": [
        -0.9572052359580994,
        -0.9905517101287842,
        -0.9906917214393616
      ],
      "type": "VEC3"
    },
    {
      "bufferView": 3,
      "componentType": 5123,
      "count": 5760,
      "max": [
        961
      ],
      "min": [
        0
      ],
      "type": "SCALAR"
    },
    {
      "bufferView": 4,
      "componentType": 5126,
      "count": 8669,
      "max": [
        0.07980145514011383,
        0.021536316722631454,
        0.0036363136023283005
      ],
      "min": [
        -0.07980149984359741,
        -0.03244829922914505,
        -0.09738384932279587
      ],
      "type": "VEC3"
    },
    {
      "bufferView": 5,
      "componentType": 5126,
      "count": 8669,
      "max": [
        0.9728665947914124,
        0.9893511533737183
      ],
      "min": [
        0.01064881682395935,
        0.010648846626281738
      ],
      "type": "VEC2"
    },
    {
      "bufferView": 6,
      "componentType": 5126,
      "count": 8669,
      "max": [
        0.9999970197677612,
        0.9999863505363464,
        0.9998478889465332
      ],
      "min": [
        -0.9999972581863403,
        -0.9996230602264404,
        -0.9997965097427368
      ],
      "type": "VEC3"
    },
    {
      "bufferView": 7,
      "componentType": 5123,
      "count": 35334,
      "max": [
        8668
      ],
      "min": [
        0
      ],
      "type": "SCALAR"
    },
    {
      "bufferView": 8,
      "componentType": 5126,
      "count": 778,
      "max": [
        0.016250889748334885,
        0.004267214797437191,
        -0.004270594567060471
      ],
      "min": [
        -0.016250889748334885,
        -0.019726473838090897,
        -0.013117740862071514
      ],
      "type": "VEC3"
    },
    {
      "bufferView": 9,
      "componentType": 5126,
      "count": 778,
      "max": [
        1,
        1
      ],
      "min": [
        0,
        -2.384185791015625e-7
      ],
      "type": "VEC2"
    },
    {
      "bufferView": 10,
      "componentType": 5126,
      "count": 778,
      "max": [
        0.9815949201583862,
        0.9988481998443604,
        0.9838060736656189
      ],
      "min": [
        -0.981596052646637,
        -0.999300479888916,
        -0.9773606061935425
      ],
      "type": "VEC3"
    },
    {
      "bufferView": 11,
      "componentType": 5123,
      "count": 4020,
      "max": [
        777
      ],
      "min": [
        0
      ],
      "type": "SCALAR"
    }
  ],
  "materials": [
    {
      "pbrMetallicRoughness": {
        "baseColorFactor": [
          0.06044843792915344,
          0.06044843792915344,
          0.06044843792915344,
          0.5
        ],
        "metallicFactor": 1,
        "roughnessFactor": 0
      },
      "alphaMode": "BLEND",
      "doubleSided": true,
      "name": "vetro"
    },
    {
      "pbrMetallicRoughness": {
        "metallicFactor": 1,
        "roughnessFactor": 1,
        "metallicRoughnessTexture": {
          "index": 0
        },
        "baseColorTexture": {
          "index": 1
        }
      },
      "doubleSided": true,
      "name": "montatura"
    },
    {
      "pbrMetallicRoughness": {
        "baseColorFactor": [
          0.5372488498687744,
          0.5372488498687744,
          0.5372488498687744,
          0.10000000149011612
        ],
        "metallicFactor": 0.46116504073143005,
        "roughnessFactor": 0.3349514603614807
      },
      "alphaMode": "BLEND",
      "doubleSided": true,
      "name": "naselli"
    }
  ],
  "meshes": [
    {
      "primitives": [
        {
          "mode": 4,
          "attributes": {
            "POSITION": 0,
            "TEXCOORD_0": 1,
            "NORMAL": 2
          },
          "indices": 3,
          "material": 0
        }
      ]
    },
    {
      "primitives": [
        {
          "mode": 4,
          "attributes": {
            "POSITION": 4,
            "TEXCOORD_0": 5,
            "NORMAL": 6
          },
          "indices": 7,
          "material": 1
        }
      ]
    },
    {
      "primitives": [
        {
          "mode": 4,
          "attributes": {
            "POSITION": 8,
            "TEXCOORD_0": 9,
            "NORMAL": 10
          },
          "indices": 11,
          "material": 2
        }
      ]
    }
  ],
  "textures": [
    {
      "sampler": 0,
      "source": 0,
      "name": "Image_0"
    },
    {
      "sampler": 1,
      "source": 1,
      "name": "Image_1"
    }
  ],
  "samplers": [
    {
      "magFilter": 9729,
      "minFilter": 9987,
      "wrapS": 10497,
      "wrapT": 10497
    },
    {
      "magFilter": 9729,
      "minFilter": 9987,
      "wrapS": 10497,
      "wrapT": 10497
    }
  ],
  "images": [
    {
      "mimeType": "image/png",
      "uri": "data:image/png;base64,"
    },
    {
      "mimeType": "image/png",
      "uri": "data:image/png;base64,"
    }
  ]
}